# xmcd CD database file
#
# Track frame offsets:
#	150
#	16542
#	30945
#	50162
#	64580
#	80680
#	102932
#	119527
#	144975
#	160627
#	175527
#	194657
#	216492
#
# Disc length: 3151 seconds
#
# Revision: 3
# Processed by: cddbd v1.5.2PL0 Copyright (c) Steve Scherf et al.
# Submitted via: CDex 1.51
#
DISCID=aa0c4d0d
DTITLE=Jason Mraz - Waiting For My Rocket To Come
DYEAR=2003
DGENRE=Rock
TTITLE0=You And I Both
TTITLE1=I'll Do Anything
TTITLE2=The Remedy (I Won't Worry)
TTITLE3=Who Needs Shelter
TTITLE4=Curbside Prophet
TTITLE5=Sleep All Day
TTITLE6=Too Much Food
TTITLE7=Absolutely Zero
TTITLE8=On Love, In Sandness
TTITLE9=No Stopping Us
TTITLE10=The Boy's Gone
TTITLE11=Tonight, Not Again
TTITLE12=Tonight, Not Again (Live)
EXTD=YEAR: 2003
EXTT0=
EXTT1=
EXTT2=
EXTT3=
EXTT4=
EXTT5=
EXTT6=
EXTT7=
EXTT8=
EXTT9=
EXTT10=
EXTT11=
EXTT12=
PLAYORDER=
